<svg xmlns="http://www.w3.org/2000/svg" width="32.267" height="32.193" viewBox="0 0 32.267 32.193"><defs><style>.a{fill:#e43672;stroke:#e43672;stroke-width:0.5px;}</style></defs><g transform="translate(-787.931 -28.931)"><g transform="translate(788.181 29.181)"><path class="a" d="M1262.607,3180.193a2.4,2.4,0,0,0-1.806-.827,2.045,2.045,0,0,0-1.394.638c-.59.613-2.541,2.276-3.718,1.877a112.125,112.125,0,0,1-10.178-10.171c-.393-1.177,1.264-3.135,1.853-3.706a2.067,2.067,0,0,0,.661-1.417,2.428,2.428,0,0,0-.827-1.805l-3.9-3.9a2.457,2.457,0,0,0-3.294-.363,8.881,8.881,0,0,0-3.309,6.8c-.088,7.138,7.713,14.411,8.257,14.909l.194.2c.31.341,7.609,8.274,14.81,8.274h.124a8.9,8.9,0,0,0,6.821-3.339,2.456,2.456,0,0,0-.386-3.261Zm3.328,6.388a7.694,7.694,0,0,1-5.872,2.879h-.11c-6.389,0-13.259-7.189-13.852-7.825a.55.55,0,0,0-.086-.092l-.177-.176-.038-.038c-.08-.073-7.956-7.317-7.871-14a7.659,7.659,0,0,1,2.842-5.844,1.218,1.218,0,0,1,1.646.27l3.9,3.9a1.288,1.288,0,0,1,.466.876.849.849,0,0,1-.262.557c-.3.29-2.9,2.882-2.19,5.011.31.927,3.761,4.321,5.215,5.723,1.417,1.468,4.811,4.917,5.739,5.228,2.117.71,4.719-1.891,5.029-2.212a.856.856,0,0,1,.524-.238,1.3,1.3,0,0,1,.89.466l3.9,3.9a1.224,1.224,0,0,1,.3,1.609Z" transform="translate(-1236.69 -3159.005)"/><path class="a" d="M1251.321,3159.131a.673.673,0,0,0,0,1.346,16.559,16.559,0,0,1,16.543,16.536.673.673,0,0,0,1.346,0A17.906,17.906,0,0,0,1251.321,3159.131Z" transform="translate(-1237.443 -3159.131)"/><path class="a" d="M1261.959,3176.3a.673.673,0,0,0,1.346,0,12,12,0,0,0-11.984-11.983.674.674,0,0,0,0,1.348A10.649,10.649,0,0,1,1261.959,3176.3Z" transform="translate(-1236.717 -3159.143)"/></g></g></svg>