<svg xmlns="http://www.w3.org/2000/svg" width="33.892" height="32.387" viewBox="0 0 33.892 32.387"><defs><style>.a{fill:#e43672;stroke:#e43672;stroke-width:0.5px;}</style></defs><g transform="translate(-592.895 -467.543)"><path class="a" d="M605.229,495.28A1.768,1.768,0,1,0,607,497.048,1.769,1.769,0,0,0,605.229,495.28Zm0,2.765a1,1,0,1,1,1-1A1,1,0,0,1,605.229,498.045Z" transform="translate(-5.019 -13.372)"/><path class="a" d="M618.2,495.28a1.768,1.768,0,1,0,1.767,1.768A1.769,1.769,0,0,0,618.2,495.28Zm0,2.765a1,1,0,1,1,1-1A1,1,0,0,1,618.2,498.045Z" transform="translate(-11.33 -13.372)"/><path class="a" d="M631.174,495.28a1.768,1.768,0,1,0,1.767,1.768A1.77,1.77,0,0,0,631.174,495.28Zm0,2.765a1,1,0,1,1,1-1A1,1,0,0,1,631.174,498.045Z" transform="translate(-17.64 -13.372)"/><path class="a" d="M625.623,468.726a3.13,3.13,0,0,0-2.239-.933H602.261a3.156,3.156,0,0,0-3.153,3.153v.915a.385.385,0,1,0,.77,0v-.915a2.385,2.385,0,0,1,2.382-2.382h21.124a2.383,2.383,0,0,1,2.383,2.4l-.178,20.27L620.6,486v-8.888a3.156,3.156,0,0,0-3.153-3.153H596.3a3.156,3.156,0,0,0-3.152,3.153v22.182a.384.384,0,0,0,.252.361.379.379,0,0,0,.134.024.384.384,0,0,0,.292-.135l5.427-6.325a2.079,2.079,0,0,1,1.58-.726h16.576A3.2,3.2,0,0,0,620.6,489.3v-2.185l5.089,5.339a.385.385,0,0,0,.664-.263l.186-21.22A3.131,3.131,0,0,0,625.623,468.726Zm-5.8,20.576a2.425,2.425,0,0,1-2.423,2.423H600.829a2.85,2.85,0,0,0-2.164.995l-4.749,5.535V477.113a2.385,2.385,0,0,1,2.382-2.383h21.148a2.385,2.385,0,0,1,2.382,2.383Z" transform="translate(0)"/></g></svg>