<svg xmlns="http://www.w3.org/2000/svg" width="30" height="35" viewBox="0 0 25.55 24.739"><defs><style>.a{fill:none;stroke:#e43672;stroke-miterlimit:10;stroke-width:1.55px;}</style></defs><g transform="translate(-1084.78 -2777.614)"><path class="a" d="M1102.337,2789.446a9.951,9.951,0,0,1-1.854,3.709,2.243,2.243,0,0,0,1.219,1.187q.992.5,2.195.991a24.042,24.042,0,0,1,3.823,1.984,4.013,4.013,0,0,1,1.836,3.643v.617h-24v-.617a4.009,4.009,0,0,1,1.838-3.643,23.951,23.951,0,0,1,3.82-1.984q1.3-.521,2.309-1.04a2,2,0,0,0,1.171-1.269,12.4,12.4,0,0,1-.992-1.334,6.59,6.59,0,0,1-.927-2.244,2.457,2.457,0,0,1-.278-.162.843.843,0,0,1-.244-.26,1.489,1.489,0,0,1-.276-.389q-.113-.229-.21-.489c-.044-.175-.082-.347-.115-.521a2.878,2.878,0,0,1-.048-.52,2.843,2.843,0,0,1,.115-.813,2.051,2.051,0,0,1,.373-.716l-.034-.031c-.02-.173-.043-.39-.064-.651s-.033-.552-.033-.878a8.293,8.293,0,0,1,.976-3.658q.976-1.968,4.617-1.968t4.618,1.968a8.293,8.293,0,0,1,.976,3.658c0,.326-.011.617-.033.878s-.044.478-.066.651v.031a2.467,2.467,0,0,1,.343.716,2.9,2.9,0,0,1,.114.813,2.836,2.836,0,0,1-.049.52c-.032.174-.07.347-.114.521-.065.173-.136.336-.212.489a1.489,1.489,0,0,1-.276.389.885.885,0,0,1-.227.26,1.234,1.234,0,0,1-.293.162c-.066.24-.131.467-.195.685a6.017,6.017,0,0,1-.228.616Z" transform="translate(0)"/></g></svg>