<?xml version="1.0" encoding="iso-8859-1"?>
<!-- Generator: Adobe Illustrator 24.0.2, SVG Export Plug-In . SVG Version: 6.00 Build 0)  -->
<svg version="1.1" id="Calque_1" xmlns="http://www.w3.org/2000/svg" xmlns:xlink="http://www.w3.org/1999/xlink" x="0px" y="0px"
	 width="26px" height="26px" viewBox="0 0 40 40" enable-background="new 0 0 40 40" xml:space="preserve">
<g>
	<g>
		<path fill="#e43672" d="M33.348,33.838H6.987c-1.018,0-1.929-0.526-2.438-1.407c-0.509-0.881-0.509-1.933,0-2.815L17.73,6.787
			c0.509-0.881,1.42-1.407,2.438-1.407c1.018,0,1.929,0.526,2.438,1.407l13.181,22.83c0.509,0.881,0.509,1.933,0,2.815
			C35.277,33.312,34.366,33.838,33.348,33.838z M18.364,7.153l0.634,0.366L5.818,30.349c-0.244,0.423-0.244,0.927,0,1.35
			c0.244,0.423,0.681,0.675,1.169,0.675h26.362c0.488,0,0.925-0.252,1.169-0.675c0.244-0.423,0.244-0.927,0-1.35L21.336,7.519
			c-0.244-0.423-0.681-0.675-1.169-0.675c-0.488,0-0.925,0.252-1.169,0.675L18.364,7.153z"/>
	</g>
	<g>
		<g>
			<path fill="#e43672" d="M20.158,26.483c0.371,0,0.692,0.134,0.96,0.403c0.269,0.269,0.403,0.589,0.403,0.96
				c0,0.372-0.134,0.692-0.403,0.96c-0.269,0.269-0.589,0.403-0.96,0.403c-0.372,0-0.689-0.134-0.951-0.403
				c-0.263-0.269-0.394-0.589-0.394-0.96c0-0.371,0.131-0.692,0.394-0.96C19.47,26.618,19.786,26.483,20.158,26.483z M19.006,17.224
				V16.36c0-0.294,0.109-0.55,0.327-0.768c0.218-0.218,0.474-0.327,0.768-0.327c0.294,0,0.55,0.109,0.768,0.327
				c0.218,0.218,0.327,0.474,0.327,0.768v0.864v0.077v0.058v0.058c-0.013,0.051-0.019,0.141-0.019,0.269
				c-0.026,0.397-0.048,0.791-0.067,1.181c-0.019,0.391-0.042,0.785-0.067,1.181l-0.173,2.881c-0.026,0.231-0.042,0.461-0.048,0.692
				c-0.007,0.231-0.016,0.461-0.029,0.692c-0.026,0.218-0.096,0.378-0.211,0.48c-0.115,0.141-0.276,0.211-0.48,0.211
				c-0.179,0-0.339-0.07-0.48-0.211c-0.128-0.115-0.192-0.275-0.192-0.48c-0.013-0.064-0.019-0.125-0.019-0.182
				c0-0.058,0-0.118,0-0.182c-0.026-0.397-0.051-0.791-0.077-1.181c-0.026-0.39-0.051-0.791-0.077-1.201
				c-0.026-0.474-0.055-0.948-0.086-1.421c-0.032-0.474-0.061-0.954-0.086-1.441c-0.013-0.218-0.023-0.439-0.029-0.663
				c-0.007-0.224-0.023-0.445-0.048-0.663V17.34v-0.038V17.224z"/>
		</g>
	</g>
</g>
</svg>
