<svg xmlns="http://www.w3.org/2000/svg" width="34.329" height="35.156" viewBox="0 0 34.329 35.156"><defs><style>.a{fill:#e43672;}</style></defs><g transform="translate(-156 -109.844)"><g transform="translate(166.864 109.844)"><path class="a" d="M352.166,110.741l-.088.091,3.981,3.826.088-.091C358.7,111.913,354.717,108.087,352.166,110.741Z" transform="translate(-333.503 -109.844)"/><path class="a" d="M340.6,119.3l-1.17-1.124-1.945,2.024,3.982,3.826,1.945-2.024-1.17-1.124Z" transform="translate(-321.104 -116.928)"/><path class="a" d="M240.728,232.7l-.03.1.03-.1Z" transform="translate(-238.846 -214.251)"/><path class="a" d="M248.865,240.318h.005l0,0Z" transform="translate(-245.787 -220.726)"/><path class="a" d="M248.859,240.318l0,0h0l0,0Z" transform="translate(-245.781 -220.727)"/><path class="a" d="M248.186,134.888l-1.194-1.148L232.714,148.6h0a1.246,1.246,0,0,1,.477.049,1.012,1.012,0,0,1,.4.236.992.992,0,0,1,.149.181,1.166,1.166,0,0,1,.171.68h0l0,0a1.534,1.534,0,0,1,.91.331q.057.045.111.1a1.525,1.525,0,0,1,.332.466,1.566,1.566,0,0,1,.137.537l0,0h0a1.056,1.056,0,0,1,1.2,1.145l-.327.116a1.066,1.066,0,0,0-.315-.7,1.106,1.106,0,0,0-.878-.284l0,0a1.536,1.536,0,0,0-1.49-1.432h-.006l0,0a1.107,1.107,0,0,0-.32-.861,1.051,1.051,0,0,0-.642-.283l-1.36,4.408.216.207.27.259.215.207,4.63-1.634,14.275-14.853-1.194-1.148Z" transform="translate(-230.831 -130.152)"/><path class="a" d="M228.9,265.287l-.216-.208-.319,1.034.984-.395-.179-.172Z" transform="translate(-228.361 -241.772)"/></g><path class="a" d="M182.725,180.172a2.552,2.552,0,0,1-2.552,2.552H160.054a2.552,2.552,0,0,1-2.552-2.552V160.054a2.552,2.552,0,0,1,2.552-2.552h16.859l1.443-1.5h-18.3A4.058,4.058,0,0,0,156,160.054v20.119a4.058,4.058,0,0,0,4.054,4.054h20.119a4.058,4.058,0,0,0,4.054-4.054V160.695l-1.5,1.562Z" transform="translate(0 -39.226)"/></g></svg>